<?xml version="1.0" standalone="no"?>
<!DOCTYPE svg PUBLIC "-//W3C//DTD SVG 20010904//EN"
 "http://www.w3.org/TR/2001/REC-SVG-20010904/DTD/svg10.dtd">
<svg version="1.0" xmlns="http://www.w3.org/2000/svg"
 width="1200.000000pt" height="544.000000pt" viewBox="0 0 1200.000000 544.000000"
 preserveAspectRatio="xMidYMid meet">

<g transform="translate(0.000000,544.000000) scale(0.100000,-0.100000)"
fill="#000000" stroke="none">
<path d="M733 4930 c-68 -41 -63 138 -63 -2152 0 -2038 0 -2074 20 -2105 41
-68 -138 -63 2152 -63 2038 0 2074 0 2105 20 68 41 63 -138 63 2150 0 2288 5
2109 -63 2150 -31 20 -67 20 -2107 20 -2040 0 -2076 0 -2107 -20z m4137 -2150
l0 -2030 -2030 0 -2030 0 0 2030 0 2030 2030 0 2030 0 0 -2030z"/>
<path d="M1821 4362 c-94 -50 -93 -206 0 -255 42 -22 125 -19 164 7 15 10 34
36 43 57 l15 39 165 0 c91 0 163 -2 161 -4 -2 -2 -39 -18 -82 -35 -412 -164
-739 -502 -888 -920 l-38 -106 0 155 -1 155 39 16 c49 21 73 57 78 117 8 90
-54 156 -146 156 -89 0 -141 -54 -141 -144 0 -66 23 -105 77 -131 l43 -21 0
-298 0 -298 -43 -21 c-54 -26 -77 -65 -77 -131 0 -66 23 -105 77 -131 l43 -21
0 -298 0 -298 -43 -21 c-54 -26 -77 -65 -77 -131 0 -85 41 -132 126 -145 29
-5 50 -1 84 17 58 29 83 75 77 140 -5 60 -29 96 -78 117 l-39 16 1 180 0 180
33 -90 c93 -252 209 -429 402 -615 142 -135 286 -227 514 -328 20 -8 -6 -11
-120 -11 l-145 -1 -20 41 c-66 137 -275 86 -275 -66 0 -91 64 -149 157 -142
64 4 101 28 121 78 l15 39 236 0 c156 0 268 -5 331 -15 52 -8 98 -15 101 -15
3 0 11 -11 17 -25 39 -85 215 -86 253 -1 16 35 108 48 389 53 l235 5 20 -44
c48 -100 209 -106 257 -8 37 73 13 167 -53 202 -75 40 -169 12 -204 -61 l-20
-41 -110 1 c-88 0 -105 3 -85 11 196 84 356 182 478 292 206 187 344 390 438
649 l33 92 0 -180 0 -180 -37 -17 c-49 -23 -72 -63 -72 -128 0 -85 41 -132
126 -145 29 -5 50 -1 84 17 58 29 83 75 77 140 -5 60 -29 96 -78 117 l-39 16
0 308 c0 305 0 307 21 307 31 0 86 60 94 103 15 79 -17 146 -80 168 l-35 13 0
306 0 305 39 16 c49 21 73 57 78 117 8 90 -54 156 -146 156 -89 0 -141 -54
-141 -144 0 -66 23 -105 77 -131 l43 -21 0 -111 c0 -62 -3 -129 -6 -150 l-7
-37 -24 72 c-137 410 -461 762 -854 929 -52 22 -103 44 -114 49 -13 6 24 9
110 9 l130 1 20 -42 c48 -100 209 -105 257 -8 37 73 13 167 -53 202 -75 40
-169 12 -204 -61 l-20 -41 -250 1 c-137 1 -274 4 -302 7 -47 6 -55 11 -71 41
-10 19 -34 43 -53 53 -70 38 -166 13 -201 -53 -24 -45 -41 -47 -398 -48 l-285
-1 -20 41 c-35 73 -129 101 -204 61z m143 -62 c30 -30 29 -102 -2 -132 -29
-30 -100 -32 -131 -4 -45 40 -34 126 19 154 33 17 88 8 114 -18z m960 0 c30
-30 29 -102 -2 -132 -29 -30 -100 -32 -131 -4 -45 40 -34 126 19 154 33 17 88
8 114 -18z m900 0 c30 -30 29 -102 -2 -132 -29 -30 -100 -32 -131 -4 -45 40
-34 126 19 154 33 17 88 8 114 -18z m-1049 -190 c50 -26 110 -25 160 1 48 24
113 20 264 -16 496 -120 900 -521 1026 -1018 33 -130 50 -280 35 -308 -9 -15
-10 -53 -6 -123 6 -81 3 -120 -13 -197 -123 -590 -598 -1036 -1191 -1117 -61
-9 -67 -8 -99 17 -48 37 -140 37 -190 1 -41 -29 -63 -28 -213 5 -549 122 -980
576 -1075 1132 -15 88 -15 107 -3 157 11 49 11 65 0 99 -39 122 29 425 141
636 207 387 576 659 997 735 106 19 122 19 167 -4z m-1379 -443 c21 -19 27
-32 27 -67 0 -57 -35 -90 -94 -90 -55 0 -89 34 -89 90 0 30 6 47 25 65 33 34
93 34 131 2z m3060 0 c21 -19 27 -32 27 -67 0 -57 -35 -90 -94 -90 -55 0 -89
34 -89 90 0 30 6 47 25 65 33 34 93 34 131 2z m-3060 -900 c21 -19 27 -32 27
-67 0 -57 -35 -90 -94 -90 -55 0 -89 34 -89 90 0 30 6 47 25 65 33 34 93 34
131 2z m3060 0 c21 -19 27 -32 27 -67 0 -57 -35 -90 -94 -90 -55 0 -89 34 -89
90 0 30 6 47 25 65 33 34 93 34 131 2z m-3060 -900 c21 -19 27 -32 27 -67 0
-57 -35 -90 -94 -90 -55 0 -89 34 -89 90 0 30 6 47 25 65 33 34 93 34 131 2z
m3060 0 c21 -19 27 -32 27 -67 0 -57 -35 -90 -94 -90 -55 0 -89 34 -89 90 0
30 6 47 25 65 33 34 93 34 131 2z m-2492 -567 c30 -30 29 -102 -2 -132 -29
-30 -100 -32 -131 -4 -45 40 -34 126 19 154 33 17 88 8 114 -18z m960 0 c30
-30 29 -102 -2 -132 -29 -30 -100 -32 -131 -4 -45 40 -34 126 19 154 33 17 88
8 114 -18z m900 0 c30 -30 29 -102 -2 -132 -29 -30 -100 -32 -131 -4 -45 40
-34 126 19 154 33 17 88 8 114 -18z"/>
<path d="M2425 3966 c-315 -116 -567 -328 -720 -609 -34 -62 -36 -70 -22 -84
21 -21 30 -13 72 65 147 268 395 474 705 583 82 29 105 41 105 55 0 30 -41 27
-140 -10z"/>
<path d="M2279 3106 c-47 -32 -74 -94 -74 -171 0 -53 2 -60 20 -60 17 0 21 9
27 57 13 102 51 148 121 148 58 0 101 -47 116 -125 17 -83 19 -87 38 -83 15 3
18 13 16 62 -3 73 -36 143 -82 173 -48 33 -133 32 -182 -1z"/>
<path d="M3322 3110 c-41 -25 -69 -71 -83 -138 -13 -65 -6 -102 20 -102 22 0
31 19 31 66 0 118 117 189 190 116 27 -28 50 -85 50 -129 0 -34 11 -53 30 -53
26 0 31 22 19 87 -13 73 -44 128 -85 153 -43 27 -128 27 -172 0z"/>
<path d="M2750 2602 c0 -137 189 -195 288 -89 31 33 46 97 27 116 -11 12 -17
12 -29 1 -9 -7 -16 -21 -16 -32 0 -49 -51 -88 -114 -88 -46 0 -95 42 -105 90
-5 26 -13 36 -29 38 -19 3 -22 -1 -22 -36z"/>
<path d="M6975 4910 c-4 -12 -22 -24 -46 -32 -44 -13 -69 -47 -69 -95 0 -15
-9 -43 -20 -61 -20 -32 -20 -51 -20 -1942 0 -1891 0 -1910 20 -1942 11 -18 20
-46 20 -61 0 -48 25 -82 69 -95 22 -7 42 -20 46 -31 4 -15 20 -19 97 -25 117
-8 3853 -6 3893 3 21 4 31 13 33 29 3 17 10 22 32 22 22 0 29 5 32 22 2 13 15
29 31 36 l27 13 0 2012 c0 1107 -3 2022 -6 2034 -3 12 -15 23 -27 25 -13 2
-23 13 -27 28 -4 18 -14 26 -32 28 -19 2 -28 10 -30 25 l-3 22 -2007 3 c-1992
2 -2007 2 -2013 -18z m4008 -98 c36 -30 37 -100 37 -2032 0 -1932 -1 -2002
-37 -2032 -13 -11 -380 -14 -1917 -16 -1046 -2 -1943 0 -1993 3 -89 7 -93 8
-93 30 0 16 -9 28 -27 37 l-28 13 0 1965 0 1965 28 13 c18 9 27 21 27 37 0 21
5 24 48 28 26 2 923 3 1993 3 1576 -1 1949 -3 1962 -14z"/>
<path d="M8836 4261 c-4 -6 -18 -11 -32 -11 -15 0 -24 -6 -24 -15 0 -11 -13
-15 -54 -15 -110 0 -178 -12 -184 -32 -5 -19 -17 -23 -97 -32 -36 -4 -56 -13
-72 -31 -12 -14 -28 -25 -36 -25 -21 0 -78 -31 -83 -45 -3 -7 -21 -16 -40 -19
-19 -4 -34 -11 -34 -16 0 -6 -7 -10 -15 -10 -8 0 -15 -6 -15 -14 0 -8 -12 -17
-27 -21 -16 -3 -40 -20 -55 -36 -15 -16 -34 -29 -42 -29 -9 0 -18 -11 -22 -24
-4 -16 -15 -26 -35 -30 -23 -4 -29 -11 -29 -31 0 -20 -5 -25 -25 -25 -20 0
-27 -6 -31 -29 -4 -20 -14 -31 -30 -35 -14 -4 -26 -16 -30 -31 -3 -13 -17 -31
-30 -40 -13 -8 -24 -20 -24 -26 0 -6 -16 -30 -35 -53 -19 -24 -35 -53 -35 -65
0 -11 -5 -21 -10 -21 -16 0 -50 -62 -50 -92 0 -17 -5 -28 -14 -28 -23 0 -36
-25 -43 -79 -3 -28 -9 -51 -14 -51 -18 0 -41 -71 -46 -147 -4 -51 -10 -83 -17
-83 -6 0 -17 -18 -24 -40 -15 -50 -17 -486 -2 -495 6 -3 10 -14 10 -24 0 -10
7 -24 15 -31 9 -7 15 -29 15 -55 0 -74 12 -135 26 -135 18 0 34 -32 34 -70 0
-34 25 -91 46 -103 8 -4 14 -18 14 -30 0 -12 13 -37 29 -55 16 -18 32 -48 35
-66 5 -26 12 -36 29 -38 14 -2 23 -11 25 -27 2 -13 17 -35 32 -50 16 -14 34
-39 39 -54 6 -16 19 -31 29 -34 10 -2 23 -18 29 -34 7 -17 21 -33 31 -36 11
-2 25 -16 31 -29 6 -13 19 -24 30 -24 10 0 25 -10 33 -23 9 -12 28 -29 44 -37
16 -8 40 -27 54 -42 13 -16 34 -28 47 -28 15 0 23 -7 25 -22 3 -20 12 -24 61
-32 50 -8 57 -12 57 -32 0 -18 7 -23 43 -29 52 -9 77 -22 77 -40 0 -9 20 -16
65 -20 35 -4 70 -14 76 -21 6 -8 17 -14 24 -14 8 0 15 -5 17 -11 2 -6 64 -14
158 -19 85 -4 168 -13 183 -19 37 -14 120 -14 134 0 7 7 74 15 166 19 154 8
197 18 197 45 0 11 13 15 50 15 57 0 117 21 126 45 3 8 17 15 30 15 26 0 74
26 87 47 4 7 19 13 33 13 13 0 27 7 30 15 4 8 12 15 19 15 7 0 15 6 18 14 3 7
21 16 41 20 26 5 37 13 42 30 4 16 15 26 35 30 23 4 29 11 29 30 0 19 6 25 27
28 20 2 29 10 33 28 4 18 14 26 32 28 21 2 28 9 30 30 2 18 10 28 28 32 18 4
26 13 28 33 2 18 9 27 21 27 21 0 41 19 41 40 0 8 10 20 23 25 15 7 25 24 32
53 6 25 19 49 30 55 27 14 35 27 35 60 0 15 7 30 15 33 8 4 15 12 15 19 0 7 7
15 15 19 9 3 15 18 15 34 0 16 9 40 21 53 29 33 39 63 39 114 0 25 6 50 15 59
8 8 15 19 15 24 0 6 6 12 13 14 9 4 12 82 12 349 0 354 -5 399 -42 422 -7 4
-13 25 -13 46 0 47 -26 123 -45 134 -8 4 -15 19 -15 33 0 26 -26 73 -47 87 -7
4 -13 16 -13 27 0 10 -7 25 -15 34 -8 8 -15 19 -15 24 0 6 -7 12 -15 16 -8 3
-15 15 -15 26 0 32 -18 60 -40 60 -13 0 -20 8 -22 28 -2 21 -9 28 -30 30 -24
3 -28 8 -28 33 0 19 -5 29 -15 29 -8 0 -15 7 -15 15 0 8 -7 15 -15 15 -8 0
-15 5 -15 11 0 17 -63 76 -85 80 -11 3 -26 17 -33 32 -9 18 -21 27 -38 27 -17
0 -24 5 -24 20 0 13 -11 25 -27 33 -16 6 -37 22 -48 35 -13 15 -36 25 -62 29
-33 4 -43 10 -45 27 -2 17 -13 23 -60 30 -47 7 -58 13 -60 30 -2 17 -14 23
-61 31 -32 6 -61 15 -65 20 -16 23 -72 37 -162 42 -76 4 -101 9 -125 26 -27
20 -45 22 -196 25 -114 3 -169 0 -173 -7z m415 -122 c16 -16 43 -25 104 -33
50 -7 88 -17 98 -28 17 -16 97 -38 142 -38 17 0 25 -6 27 -22 2 -19 13 -25 53
-33 36 -8 53 -17 60 -33 6 -13 22 -24 41 -28 20 -4 34 -13 37 -24 3 -11 21
-26 41 -34 20 -8 36 -20 36 -25 0 -6 7 -11 15 -11 8 0 15 -7 15 -15 0 -10 10
-15 29 -15 25 0 30 -4 33 -27 2 -22 9 -29 31 -31 21 -3 27 -9 27 -27 0 -16 9
-28 27 -37 15 -7 29 -22 32 -33 2 -11 16 -32 32 -47 16 -16 35 -44 43 -63 8
-19 22 -35 30 -35 10 0 16 -9 16 -25 0 -27 26 -74 47 -88 7 -4 13 -18 13 -31
0 -13 7 -29 15 -36 8 -7 15 -18 15 -25 0 -7 6 -15 14 -18 8 -3 16 -30 20 -67
7 -64 22 -108 43 -125 21 -17 35 -327 23 -510 -5 -88 -10 -172 -10 -186 0 -17
-6 -28 -18 -31 -19 -5 -42 -87 -42 -150 0 -18 -5 -28 -15 -28 -16 0 -45 -60
-45 -94 0 -12 -9 -25 -22 -31 -18 -8 -25 -23 -32 -63 -8 -41 -14 -52 -28 -52
-12 0 -24 -12 -33 -34 -8 -18 -23 -36 -35 -39 -12 -3 -20 -13 -20 -25 0 -12
-10 -28 -22 -37 -13 -8 -32 -32 -43 -52 -12 -20 -29 -41 -40 -47 -29 -17 -44
-29 -67 -54 -12 -12 -28 -22 -35 -22 -7 0 -18 -9 -25 -21 -7 -11 -28 -27 -45
-34 -21 -9 -33 -21 -33 -33 0 -15 -9 -21 -42 -25 -29 -4 -50 -14 -65 -31 -12
-14 -28 -26 -36 -26 -20 0 -81 -31 -89 -46 -5 -6 -35 -15 -68 -19 -33 -4 -60
-11 -60 -16 0 -5 -7 -9 -15 -9 -8 0 -15 -4 -15 -10 0 -13 -28 -19 -136 -29
-52 -4 -105 -16 -125 -26 -22 -11 -67 -19 -126 -22 -81 -5 -99 -3 -145 17 -35
15 -89 26 -165 33 -84 7 -113 13 -113 24 0 18 -37 31 -114 39 -56 6 -65 10
-68 28 -2 17 -13 23 -60 30 -46 7 -58 13 -60 30 -2 15 -15 23 -47 31 -26 6
-51 21 -65 38 -12 15 -32 27 -44 27 -17 0 -22 6 -22 25 0 20 -6 27 -29 31 -20
4 -31 14 -35 29 -3 14 -16 25 -31 29 -15 4 -30 17 -35 32 -6 14 -18 28 -28 31
-10 2 -23 18 -29 34 -7 19 -18 29 -31 29 -15 0 -22 8 -24 27 -2 19 -10 29 -28
33 -17 4 -26 15 -31 38 -7 36 -35 82 -49 82 -6 0 -10 7 -10 17 0 27 -33 93
-47 93 -7 0 -13 10 -13 21 0 41 -24 102 -42 107 -12 3 -18 14 -18 36 0 17 -3
55 -7 84 -5 43 -10 55 -28 62 -22 8 -23 14 -26 167 -2 87 -2 219 -1 295 4 120
6 137 22 141 13 3 20 22 29 69 6 36 11 74 11 86 0 11 6 25 14 29 15 9 46 92
46 123 0 10 11 27 25 38 14 11 28 34 31 52 4 17 13 34 20 37 8 3 14 11 14 18
0 7 7 18 15 25 8 7 15 23 15 36 0 18 6 24 21 24 13 0 25 11 35 35 8 19 21 35
28 35 8 0 18 10 22 23 9 28 139 157 159 157 9 0 20 10 26 23 6 13 24 28 40 34
19 8 29 18 29 32 0 16 6 21 25 21 27 0 74 26 88 47 4 7 17 13 29 13 11 0 37
14 58 30 21 17 43 30 48 30 6 0 34 5 62 11 37 8 50 15 50 28 0 15 13 19 87 24
48 4 89 11 91 17 2 5 12 10 22 10 9 0 23 7 30 15 10 13 50 15 236 15 215 0
225 -1 245 -21z"/>
<path d="M8600 3950 c0 -5 9 -10 20 -10 11 0 20 5 20 10 0 6 -9 10 -20 10 -11
0 -20 -4 -20 -10z"/>
<path d="M8430 3890 c0 -5 11 -10 25 -10 14 0 25 5 25 10 0 6 -11 10 -25 10
-14 0 -25 -4 -25 -10z"/>
<path d="M8247 3784 c-16 -16 -6 -35 16 -32 12 2 22 10 22 18 0 16 -26 25 -38
14z"/>
<path d="M7900 3405 c0 -8 5 -15 10 -15 6 0 10 7 10 15 0 8 -4 15 -10 15 -5 0
-10 -7 -10 -15z"/>
<path d="M8483 3115 c-7 -20 -6 -21 43 -28 48 -6 70 4 61 27 -9 22 -95 23
-104 1z"/>
<path d="M9533 3123 c-48 -9 -12 -33 50 -33 22 0 28 4 25 18 -3 17 -33 24 -75
15z"/>
<path d="M9447 3073 c-4 -3 -7 -15 -7 -25 0 -14 6 -19 23 -16 29 4 38 48 9 48
-10 0 -22 -3 -25 -7z"/>
<path d="M8374 3055 c-10 -25 3 -44 25 -38 29 7 29 53 1 53 -11 0 -23 -7 -26
-15z"/>
<path d="M9634 3059 c-10 -17 13 -36 27 -22 12 12 4 33 -11 33 -5 0 -12 -5
-16 -11z"/>
<path d="M9395 3001 c-7 -23 4 -71 16 -71 11 0 23 66 14 79 -10 17 -23 13 -30
-8z"/>
<path d="M9157 2584 c-16 -16 -7 -44 14 -44 15 0 20 5 17 22 -3 22 -19 33 -31
22z"/>
<path d="M8916 2571 c-3 -5 1 -14 9 -21 13 -10 15 -9 15 9 0 21 -14 28 -24 12z"/>
<path d="M8960 2510 c0 -17 5 -21 28 -18 16 2 27 9 27 18 0 9 -11 16 -27 18
-23 3 -28 -1 -28 -18z"/>
<path d="M9105 2510 c-3 -5 3 -10 14 -10 12 0 21 5 21 10 0 6 -6 10 -14 10 -8
0 -18 -4 -21 -10z"/>
</g>
</svg>
